<?xml version="1.0" standalone="no"?>
<!DOCTYPE svg PUBLIC "-//W3C//DTD SVG 20010904//EN"
 "http://www.w3.org/TR/2001/REC-SVG-20010904/DTD/svg10.dtd">
<svg version="1.0" xmlns="http://www.w3.org/2000/svg"
 width="502.000000pt" height="502.000000pt" viewBox="0 0 502.000000 502.000000"
 preserveAspectRatio="xMidYMid meet">
<metadata>
Created by potrace 1.14, written by Peter Selinger 2001-2017
</metadata>
<g transform="translate(0.000000,502.000000) scale(0.100000,-0.100000)"
fill="#000000" stroke="none">
<path d="M1685 4659 c-81 -9 -94 -12 -153 -33 -178 -64 -312 -202 -375 -385
-119 -345 91 -722 448 -804 78 -18 224 -14 300 7 129 38 273 139 344 243 137
200 145 472 21 677 -96 158 -272 273 -445 292 -27 3 -54 6 -60 7 -5 2 -41 0
-80 -4z"/>
<path d="M3207 4664 c-1 -1 -24 -4 -52 -7 -228 -25 -427 -186 -513 -415 -22
-58 -25 -84 -26 -192 -1 -107 2 -135 23 -195 67 -199 227 -353 426 -411 232
-67 511 27 655 221 81 109 119 214 126 349 15 296 -180 558 -471 630 -52 13
-161 26 -168 20z"/>
<path d="M3782 3592 c-91 -18 -201 -74 -259 -132 -54 -53 -215 -227 -243 -262
-10 -13 -37 -43 -61 -68 -41 -42 -167 -181 -264 -289 -22 -25 -47 -52 -55 -61
-17 -18 -177 -193 -260 -284 -30 -33 -74 -81 -97 -105 l-41 -45 -551 551
c-302 303 -567 564 -588 580 -93 72 -204 104 -343 99 -105 -4 -163 -21 -250
-73 -122 -73 -194 -163 -273 -343 -13 -30 -28 -66 -32 -80 -4 -14 -11 -29 -15
-35 -7 -10 -46 -123 -55 -161 -3 -10 -14 -57 -26 -103 -42 -170 -56 -297 -57
-501 0 -107 3 -217 8 -245 4 -27 11 -72 14 -100 12 -84 36 -195 63 -280 14
-44 26 -84 28 -90 2 -11 6 -21 42 -110 197 -481 559 -874 1028 -1115 117 -60
365 -158 365 -144 0 3 8 1 18 -5 9 -5 69 -20 132 -34 107 -24 166 -33 265 -43
63 -6 355 -6 405 1 25 3 63 8 85 11 225 29 494 115 701 224 101 53 277 164
304 191 8 9 22 20 32 25 17 9 119 98 178 156 299 288 516 680 606 1095 23 110
28 144 42 308 30 342 -42 722 -202 1075 -60 132 -83 167 -155 238 -136 133
-314 189 -489 154z m233 -1334 c-10 -623 -374 -1166 -945 -1411 -136 -58 -261
-90 -438 -114 -26 -3 -105 -6 -177 -5 -587 4 -1124 346 -1375 875 -112 236
-165 494 -151 732 1 14 145 -124 505 -484 489 -489 506 -507 545 -586 54 -109
147 -205 256 -262 153 -80 323 -82 482 -7 80 38 135 87 298 268 50 55 97 107
105 116 8 9 78 85 155 170 76 85 146 162 155 171 13 13 77 84 191 210 13 14
65 70 114 124 50 55 99 109 110 121 57 64 168 184 169 184 1 0 1 -46 1 -102z"/>
</g>
</svg>
